<svg xmlns="http://www.w3.org/2000/svg" width="200" height="200" viewBox="0 0 200 200">
  <!-- 背景圆 -->
  <circle cx="100" cy="100" r="95" fill="#2c3e50" />
  
  <!-- 红桃A扑克牌 -->
  <rect x="65" y="55" width="70" height="100" rx="5" fill="#ffffff" stroke="#e74c3c" stroke-width="3" />
  
  <!-- 左上角A字母 -->
  <text x="75" y="80" font-family="'Arial Black', Arial, sans-serif" font-size="24" font-weight="bold" fill="#e74c3c">A</text>
  
  <!-- 左上角红桃符号 -->
  <path d="M90 90 C85 85, 80 90, 85 100 C90 90, 95 85, 90 90 Z" fill="#e74c3c" />
  
  <!-- 中央大红色桃符号 -->
  <path d="M100 110 C85 95, 75 110, 85 130 C100 115, 115 95, 100 110 Z" fill="#e74c3c" />
  <path d="M100 130 C90 140, 85 130, 90 115 C100 130, 110 140, 100 130 Z" fill="#e74c3c" />
  
  <!-- 右下角A字母（旋转180度） -->
  <g transform="translate(135, 145) rotate(180)">
    <text font-family="'Arial Black', Arial, sans-serif" font-size="24" font-weight="bold" fill="#e74c3c">A</text>
  </g>
  
  <!-- 右下角红桃符号（旋转180度） -->
  <g transform="translate(110, 155) rotate(180)">
    <path d="M90 90 C85 85, 80 90, 85 100 C90 90, 95 85, 90 90 Z" fill="#e74c3c" />
  </g>
  
  <!-- 文字 -->
  <text x="100" y="170" font-family="Arial, sans-serif" font-size="16" font-weight="bold" fill="#ffffff" text-anchor="middle">Texas Hold'em</text>
  <text x="100" y="185" font-family="Arial, sans-serif" font-size="12" fill="#ecf0f1" text-anchor="middle">Poker Game</text>
</svg>