<svg xmlns="http://www.w3.org/2000/svg" width="320" height="320" viewBox="0 0 320 320">
  <!-- 背景圆 -->
  <circle cx="160" cy="160" r="155" fill="#34495e" />
  
  <!-- 红桃A扑克牌 -->
  <rect x="85" y="55" width="150" height="210" rx="10" fill="#ffffff" stroke="#e74c3c" stroke-width="5" />
  
  <!-- 左上角A字母 -->
  <text x="105" y="100" font-family="'Arial Black', Arial, sans-serif" font-size="52" font-weight="bold" fill="#e74c3c">A</text>
  
  <!-- 左上角红桃符号 -->
  <path d="M140 120 C130 110, 120 120, 130 140 C140 120, 150 110, 140 120 Z" fill="#e74c3c" />
  
  <!-- 中央大红色桃符号 -->
  <path d="M160 170 C130 135, 110 170, 130 210 C160 180, 190 135, 160 170 Z" fill="#e74c3c" />
  <path d="M160 210 C140 240, 130 210, 140 180 C160 210, 180 240, 160 210 Z" fill="#e74c3c" />
  
  <!-- 右上角红桃符号 -->
  <path d="M210 120 C200 110, 190 120, 200 140 C210 120, 220 110, 210 120 Z" fill="#e74c3c" />
  
  <!-- 左下角红桃符号 -->
  <g transform="translate(140, 190) rotate(180)">
    <path d="M140 120 C130 110, 120 120, 130 140 C140 120, 150 110, 140 120 Z" fill="#e74c3c" />
  </g>
  
  <!-- 右下角A字母（旋转180度） -->
  <g transform="translate(215, 235) rotate(180)">
    <text font-family="'Arial Black', Arial, sans-serif" font-size="52" font-weight="bold" fill="#e74c3c">A</text>
  </g>
  
  <!-- 右下角红桃符号（旋转180度） -->
  <g transform="translate(180, 250) rotate(180)">
    <path d="M140 120 C130 110, 120 120, 130 140 C140 120, 150 110, 140 120 Z" fill="#e74c3c" />
  </g>
  
  <!-- 文字 -->
  <text x="160" y="290" font-family="Arial, sans-serif" font-size="24" font-weight="bold" fill="#ffffff" text-anchor="middle">Texas Hold'em</text>
  <text x="160" y="310" font-family="Arial, sans-serif" font-size="18" fill="#ecf0f1" text-anchor="middle">Poker Game</text>
</svg>